<svg version="1.2" xmlns="http://www.w3.org/2000/svg" viewBox="0 0 35 50" width="35" height="50"><style>.a{fill:#fff}</style><path class="a" d="m30.4 34.2c-1.3 4.9 3.4 4 1.3 9.7-1.7 4.7-10.5 5.8-13.5 6-1.3 0.3-15.3-0.5-17.4-6.1-2.1-5.7 2.7-4.8 1.4-9.7-1.3-4.9-2.2-2.4-2.2-7.2 0-5.6 7-5 5.3-12.7 4.1 5.8-1.9 8.8 0.7 12.6 2.6 3.9 4.8 2.4 4.8 6.7 0 4.4-4.8 3.7-4 7.3 0.2 1 1 2.2 2.1 3.4-0.1-1.2 0.2-2.6 0.7-4.4 1.6-6.4 7.9-8.3 7.1-13.5-0.8-5.1-9.8-2.3-7.8-11 2.1-8.7 8-9.4 6.2-15.3 4.6 6.8-0.7 8.9 0.3 12.3 1 3.3 5.9-0.2 8 7 2 7.2-7.5 10.9-6.7 15.2 0.8 4.4 6.5 2.8 6.5 7.2 0 1.5-0.3 2.8-0.7 3.9 1.5-1.5 2.9-3.2 3.2-4.7 0.8-3.6-4-2.9-4-7.3 0-4.3 3.3-2.9 5.9-6.7 2.5-3.9-4.5-6.8-0.3-12.6-1.8 7.7 7.3 7.4 7.2 13.1 0 4.8-2.8 1.9-4.1 6.8z"/></svg>